<svg width="31" height="31" viewBox="0 0 31 31" fill="none" xmlns="http://www.w3.org/2000/svg">
<path d="M8.10055 2.40061C9.33321 1.44056 10.9452 0.910156 12.5467 0.910156C13.5053 0.910156 14.2802 1.23906 14.8683 1.76206C15.0269 1.9028 15.1676 2.0554 15.2935 2.21245C15.4195 2.0554 15.5602 1.9028 15.7188 1.76206C16.3069 1.23906 17.0818 0.910156 18.0404 0.910156C19.6419 0.910156 21.2554 1.44056 22.4851 2.40061C23.4451 3.14584 24.1963 4.17552 24.4911 5.41855C25.1133 5.52226 25.666 5.83932 26.1134 6.2586C26.8246 6.92678 27.3327 7.89276 27.6513 8.88689C27.9757 9.89584 28.1372 11.0292 28.0883 12.1182C28.0631 12.6753 27.9817 13.2442 27.8261 13.7879L27.9224 13.8324C28.4706 14.0901 28.915 14.4946 29.2484 15.0324C29.8781 16.0473 30.1003 17.5081 30.1003 19.3704C30.1003 21.5113 29.281 22.9647 28.2291 23.867C27.6812 24.3369 27.0399 24.6853 26.3475 24.8893C26.0963 26.047 25.58 27.1308 24.8393 28.0554C23.7681 29.3947 22.1028 30.5266 19.8657 30.5266C18.073 30.5266 16.661 29.534 15.7543 28.5858C15.5935 28.4163 15.4403 28.2398 15.295 28.0568C15.1493 28.2393 14.9955 28.4153 14.8343 28.5843C13.9275 29.5354 12.5156 30.5266 10.7229 30.5266C8.48428 30.5266 6.819 29.3947 5.74931 28.0554C5.00747 27.1311 4.49018 26.0473 4.23812 24.8893C3.54623 24.6851 2.90546 24.3367 2.35801 23.867C1.3061 22.9632 0.488281 21.5113 0.488281 19.3704C0.488281 17.5081 0.710516 16.0473 1.3387 15.0324C1.67198 14.4799 2.16911 14.0449 2.761 13.7879C2.60878 13.2435 2.52077 12.6831 2.49876 12.1182C2.44987 11.0292 2.61136 9.89584 2.93582 8.88689C3.25436 7.89425 3.76105 6.92678 4.47369 6.2586C4.91938 5.82417 5.484 5.53181 6.096 5.41855C6.39231 4.17404 7.14198 3.14584 8.10055 2.40061ZM9.46656 4.1533C8.65762 4.78296 8.18352 5.62153 8.18352 6.58751C8.18339 6.76348 8.14146 6.93691 8.06119 7.09351C7.98093 7.25011 7.86461 7.38541 7.72183 7.48826C7.57905 7.59112 7.41387 7.65859 7.23991 7.68513C7.06595 7.71167 6.88818 7.69651 6.72122 7.6409C6.51824 7.57275 6.30342 7.58904 5.99525 7.87943C5.65153 8.20093 5.30336 8.78318 5.0515 9.56545C4.79955 10.3579 4.68725 11.188 4.71963 12.0189C4.75667 12.8427 4.95223 13.5271 5.2604 13.9894C5.31139 14.066 5.35269 14.1486 5.38337 14.2353H6.98642C8.05309 14.2351 9.08033 14.6386 9.86169 15.3647C10.6431 16.0909 11.1207 17.0858 11.1985 18.1496C11.8367 18.4043 12.3666 18.8729 12.6975 19.4751C13.0283 20.0774 13.1395 20.776 13.0121 21.4512C12.8847 22.1265 12.5265 22.7364 11.9989 23.1767C11.4714 23.617 10.8072 23.8603 10.12 23.8648C9.43287 23.8694 8.7655 23.635 8.23213 23.2017C7.69875 22.7685 7.33254 22.1633 7.19617 21.4898C7.0598 20.8163 7.16174 20.1164 7.48456 19.5097C7.80738 18.9031 8.33099 18.4276 8.96579 18.1644C8.89542 17.6898 8.65679 17.2564 8.29344 16.943C7.93008 16.6297 7.4662 16.4575 6.98642 16.4577H3.09731C2.87508 16.9733 2.71063 17.8637 2.71063 19.3704C2.71063 20.8831 3.26029 21.7128 3.8055 22.181C4.40257 22.6921 5.05891 22.8254 5.24855 22.8254C5.54325 22.8254 5.82588 22.9425 6.03426 23.1509C6.24265 23.3593 6.35972 23.6419 6.35972 23.9366C6.35972 24.5589 6.70344 25.6893 7.48571 26.6671C8.23834 27.6109 9.31099 28.3043 10.7229 28.3043C11.6667 28.3043 12.5349 27.7739 13.2268 27.0509C13.5616 26.6982 13.8224 26.3323 13.9942 26.036C14.0592 25.9252 14.1162 25.8098 14.1646 25.6908L14.1735 25.67V11.6426H12.846C12.5881 12.2801 12.1166 12.808 11.5122 13.1359C10.9077 13.4638 10.2081 13.5713 9.5331 13.44C8.85812 13.3086 8.24983 12.9466 7.81249 12.416C7.37515 11.8853 7.13598 11.2191 7.13598 10.5314C7.13598 9.84378 7.37515 9.17754 7.81249 8.64689C8.24983 8.11624 8.85812 7.75422 9.5331 7.62286C10.2081 7.49151 10.9077 7.59901 11.5122 7.92693C12.1166 8.25486 12.5881 8.78279 12.846 9.42026H14.1735V5.66005L14.169 5.5756C14.1437 5.1193 14.0539 4.66889 13.9024 4.23775C13.769 3.88217 13.5957 3.60512 13.3912 3.42289C13.209 3.25992 12.9571 3.1325 12.5467 3.1325C11.4118 3.1325 10.2873 3.51474 9.46507 4.15478L9.46656 4.1533ZM16.4151 23.1247V25.67L16.4225 25.6908C16.4521 25.7693 16.5084 25.8864 16.5944 26.036C16.7647 26.3323 17.0255 26.6982 17.3618 27.0509C18.0522 27.7739 18.9219 28.3043 19.8657 28.3043C21.2761 28.3043 22.3487 27.6109 23.1029 26.6671C23.8836 25.6893 24.2289 24.5574 24.2289 23.9366C24.2289 23.6419 24.3459 23.3593 24.5543 23.1509C24.7627 22.9425 25.0453 22.8254 25.34 22.8254C25.5297 22.8254 26.1845 22.6921 26.7831 22.181C27.3268 21.7128 27.8765 20.8831 27.8765 19.3704C27.8765 17.5807 27.6424 16.6592 27.3594 16.2043C27.2708 16.047 27.1365 15.9204 26.9742 15.8414C26.8246 15.7702 26.5994 15.7169 26.2512 15.7169C26.0501 15.7169 25.8527 15.6623 25.6802 15.5589C25.5077 15.4556 25.3665 15.3073 25.2716 15.13C25.1767 14.9527 25.1317 14.753 25.1414 14.5521C25.1511 14.3512 25.2151 14.1567 25.3267 13.9894C25.6349 13.5257 25.8304 12.8427 25.8689 12.0189C25.9008 11.188 25.788 10.3578 25.5356 9.56545C25.2837 8.78318 24.9356 8.20241 24.5933 7.87943C24.2837 7.58904 24.0688 7.57275 23.8674 7.6409C23.7003 7.6968 23.5224 7.71218 23.3482 7.68578C23.1741 7.65938 23.0087 7.59196 22.8657 7.48907C22.7227 7.38618 22.6063 7.25077 22.5259 7.09402C22.4456 6.93726 22.4036 6.76365 22.4036 6.58751C22.4036 5.62153 21.9295 4.78296 21.1205 4.1533C20.3012 3.51474 19.1752 3.13102 18.0389 3.13102C17.63 3.13102 17.3796 3.25992 17.1959 3.42141C16.9639 3.64888 16.7892 3.92815 16.6862 4.23627C16.5201 4.69325 16.4285 5.17399 16.4151 5.66005V20.9024H17.3574C17.8878 20.9024 18.3966 20.6916 18.7717 20.3166C19.1467 19.9415 19.3575 19.4327 19.3575 18.9023V16.2429C18.72 15.985 18.1921 15.5134 17.8642 14.909C17.5362 14.3046 17.4287 13.6049 17.5601 12.93C17.6914 12.255 18.0535 11.6467 18.5841 11.2093C19.1148 10.772 19.781 10.5328 20.4686 10.5328C21.1563 10.5328 21.8225 10.772 22.3532 11.2093C22.8838 11.6467 23.2459 12.255 23.3772 12.93C23.5086 13.6049 23.4011 14.3046 23.0731 14.909C22.7452 15.5134 22.2173 15.985 21.5798 16.2429V18.9023C21.5798 20.0221 21.135 21.0961 20.3431 21.888C19.5512 22.6799 18.4772 23.1247 17.3574 23.1247H16.4151ZM10.0977 9.79065C9.90123 9.79065 9.71281 9.86869 9.57389 10.0076C9.43497 10.1465 9.35692 10.335 9.35692 10.5314C9.35692 10.7279 9.43497 10.9163 9.57389 11.0552C9.71281 11.1942 9.90123 11.2722 10.0977 11.2722C10.2942 11.2722 10.4826 11.1942 10.6215 11.0552C10.7604 10.9163 10.8385 10.7279 10.8385 10.5314C10.8385 10.335 10.7604 10.1465 10.6215 10.0076C10.4826 9.86869 10.2942 9.79065 10.0977 9.79065ZM9.35692 20.9024C9.35692 21.0988 9.43497 21.2873 9.57389 21.4262C9.71281 21.5651 9.90123 21.6432 10.0977 21.6432C10.2942 21.6432 10.4826 21.5651 10.6215 21.4262C10.7604 21.2873 10.8385 21.0988 10.8385 20.9024C10.8385 20.7059 10.7604 20.5175 10.6215 20.3786C10.4826 20.2396 10.2942 20.1616 10.0977 20.1616C9.90123 20.1616 9.71281 20.2396 9.57389 20.3786C9.43497 20.5175 9.35692 20.7059 9.35692 20.9024ZM19.7279 13.4946C19.7279 13.691 19.8059 13.8794 19.9448 14.0184C20.0838 14.1573 20.2722 14.2353 20.4686 14.2353C20.6651 14.2353 20.8535 14.1573 20.9925 14.0184C21.1314 13.8794 21.2094 13.691 21.2094 13.4946C21.2094 13.2981 21.1314 13.1097 20.9925 12.9707C20.8535 12.8318 20.6651 12.7538 20.4686 12.7538C20.2722 12.7538 20.0838 12.8318 19.9448 12.9707C19.8059 13.1097 19.7279 13.2981 19.7279 13.4946Z" fill="#6A492B"/>
</svg>
