<svg width="22" height="18" viewBox="0 0 22 18" fill="none" xmlns="http://www.w3.org/2000/svg">
<path fill-rule="evenodd" clip-rule="evenodd" d="M5.71169 0.970813C9.2302 0.656213 12.7698 0.656213 16.2883 0.970813L17.8057 1.10648C19.318 1.2417 20.54 2.39708 20.7596 3.89951C21.2541 7.28187 21.2541 10.7181 20.7596 14.1005C20.54 15.6029 19.318 16.7583 17.8057 16.8935L16.2883 17.0292C12.7698 17.3438 9.2302 17.3438 5.71169 17.0292L4.19435 16.8935C2.68198 16.7583 1.46003 15.6029 1.24038 14.1005C0.745882 10.7181 0.745882 7.28187 1.24038 3.89951C1.46003 2.39708 2.68198 1.2417 4.19435 1.10648L5.71169 0.970813ZM4.85557 3.83962C4.62315 3.71446 4.34204 3.72072 4.11541 3.85608C3.88878 3.99145 3.75 4.23599 3.75 4.49997V14C3.75 14.4142 4.08579 14.75 4.5 14.75C4.91421 14.75 5.25 14.4142 5.25 14V5.75563L10.6444 8.66037C10.8664 8.77987 11.1336 8.77987 11.3556 8.66037L16.75 5.75563V14C16.75 14.4142 17.0858 14.75 17.5 14.75C17.9142 14.75 18.25 14.4142 18.25 14V4.49997C18.25 4.23599 18.1112 3.99145 17.8846 3.85608C17.658 3.72072 17.3769 3.71446 17.1444 3.83962L11 7.14817L4.85557 3.83962Z" fill="#6A492B"/>
</svg>
