<svg width="400" height="401" viewBox="0 0 400 401" fill="none" xmlns="http://www.w3.org/2000/svg">
<path fill-rule="evenodd" clip-rule="evenodd" d="M184.729 0.301459C134.766 5.29342 92.9601 24.7734 58.6717 59.0415C19.6287 98.0641 -0.0581204 145.732 0.000128881 201.109C0.0554657 254.195 18.7506 300.603 55.5059 338.897C81.5739 366.056 109.212 382.773 145.492 393.328C179.682 403.276 217.363 403.551 252.799 394.115C314.916 377.572 367.718 328.329 389.193 266.913C397.16 244.13 399.94 227.207 399.999 201.109C400.098 158.875 389.819 124.218 366.707 88.8709C356.197 72.7985 328.842 45.0762 313.605 35.0573C289.221 19.0228 262.744 8.21608 235.556 3.1979C223.236 0.924727 194.742 -0.698972 184.729 0.301459ZM234.241 7.60737C303.892 18.9325 365.109 72.564 386.96 141.403C395.998 169.872 398.411 206.402 393.151 235.071C378.664 314.025 317.964 376.11 238.95 392.791C219.25 396.95 183.763 397.251 164.342 393.423C84.4237 377.674 24.1823 317.831 7.66719 237.788C3.78196 218.96 3.47907 185.693 7.01334 166.159C22.7683 79.1113 95.8071 12.426 183.2 5.29925C199.301 3.98718 216.852 4.78083 234.241 7.60737ZM98.7763 156.43C70.3114 177.36 62.3749 182.812 61.9992 181.687C61.7633 180.98 63.2312 174.675 65.2597 167.673C67.2897 160.672 68.5843 154.355 68.1401 153.634C66.9839 151.764 62.5671 152.017 60.5124 154.072C58.0018 156.583 58.3076 160.092 60.9492 159.079C62.1506 158.619 63.1336 158.895 63.1336 159.695C63.1336 160.496 58.4474 177.522 52.7201 197.533C43.3055 230.424 41.7197 238.572 45.5219 234.504C46.2209 233.757 48.548 226.92 50.693 219.311C59.5382 187.928 58.6892 190.044 61.7749 191.695C64.8898 193.363 68.8813 200.541 73.3826 212.571C77.5022 223.584 81.2986 228.049 86.5396 228.049C89.439 228.049 90.802 227.319 90.802 225.767C90.802 224.187 89.9501 223.754 88.0351 224.362C84.6785 225.428 80.1278 220.178 77.5823 212.304C74.8839 203.957 70.4541 195.667 66.3562 191.294C64.3 189.1 62.8977 187.076 63.2399 186.795C63.5821 186.516 72.8059 179.917 83.7378 172.132C94.6683 164.347 104.705 156.771 106.04 155.295C110.509 150.356 106.1 151.045 98.7763 156.43ZM221.866 155.523C217.404 160.247 213.388 168.444 208.046 183.731C205.509 190.994 202.914 197.775 202.279 198.803C200.411 201.826 183.8 212.03 180.748 212.03C178.348 212.03 178.09 211.349 178.956 207.298C179.513 204.695 180.605 201.774 181.383 200.809C183.067 198.714 181.514 195.578 179.43 196.865C178.627 197.362 173.921 198.626 168.972 199.677C164.023 200.728 158.827 202.042 157.425 202.597C155.387 203.402 154.876 202.834 154.876 199.763C154.876 197.649 153.882 195.538 152.666 195.072C149.126 193.714 141.904 197.487 137.838 202.818C133.509 208.493 132.277 208.382 134.508 202.515C135.364 200.264 135.69 197.449 135.235 196.259C134.552 194.481 133.896 194.643 131.543 197.168C128.236 200.718 120.158 203.272 112.206 203.284C107.393 203.291 106.475 202.737 105.185 199.036C103.805 195.075 103.401 194.883 99.3836 196.284C94.3843 198.027 89.3458 206.633 89.3458 213.428C89.3458 217.136 89.9166 217.855 92.8567 217.855C96.1915 217.855 103.908 210.66 103.908 207.549C103.908 206.81 107.352 206.205 111.563 206.205C115.773 206.205 121.463 205.562 124.208 204.774C126.953 203.987 129.389 203.533 129.622 203.766C129.855 203.999 127.442 214.172 124.259 226.374C118.159 249.751 117.645 252.805 119.813 252.805C120.553 252.805 123.234 246.087 125.77 237.878C128.309 229.67 132.009 219.675 133.994 215.671C138.277 207.03 145.682 198.924 149.292 198.924C153.445 198.924 150.939 202.709 143.022 208.397C139.063 211.241 136.201 214.181 136.665 214.928C137.713 216.626 143.717 214.458 148.598 210.618C151.916 208.008 161.222 204.793 171.636 202.658L176.019 201.759L175.495 208.34C174.764 217.544 177.558 218.251 189.615 211.917C194.832 209.176 199.524 206.751 200.041 206.53C200.56 206.309 200.692 208.11 200.335 210.535C199.947 213.189 200.334 214.943 201.311 214.943C202.202 214.943 202.932 213.961 202.932 212.763C202.932 209.488 213.066 198.924 216.207 198.924C221.799 198.924 218.949 205.064 210.736 210.715C204.448 215.042 203.571 217.855 208.511 217.855C209.882 217.855 213.284 215.99 216.07 213.709C222.013 208.847 225.786 206.747 233.438 204.047L239.043 202.07L238.896 207.219C238.564 218.942 253.329 219.476 268.02 208.27C273.416 204.154 273.732 204.739 270.725 213.265C269.348 217.166 269.129 219.552 270.093 220.147C270.904 220.65 271.739 220.83 271.947 220.549C272.155 220.27 273.843 217.418 275.698 214.215C277.552 211.011 280.447 206.285 282.129 203.712L285.189 199.036L288.111 202.648C291.35 206.649 298.491 207.745 308.226 205.732L313.769 204.586L312.799 209.75C312.043 213.784 312.352 215.112 314.21 215.825C316.863 216.843 327.821 210.259 329.123 206.865C330.836 202.405 332.185 205.004 330.69 209.879C329.743 212.959 326.633 217.043 322.901 220.101C308.612 231.81 296.131 247.166 296.131 253.039C296.131 256.378 300.427 258.593 304.14 257.168C311.021 254.526 323.353 238.381 329.094 224.503C332.028 217.408 338.804 212.471 355.472 205.285C364.266 201.493 367.02 198.924 362.293 198.924C361.039 198.924 354.205 201.837 347.106 205.396L334.198 211.867L336.39 204.487C339.692 193.367 337.195 193.013 327.399 203.211C322.74 208.062 318.386 212.03 317.724 212.03C315.574 212.03 316.444 207.464 319.69 201.687C323.388 195.104 322.301 192.724 317.604 197.123C313.188 201.26 307.377 203.293 299.968 203.293C293.03 203.293 290.306 201.363 290.306 196.449C290.306 192.402 286.419 191.939 283.576 195.648C281.944 197.778 281.402 197.86 280.28 196.152C279.205 194.518 277.813 195.18 273.335 199.456C267.516 205.011 252.292 213.486 248.133 213.486C244.988 213.486 242.25 210.64 242.25 207.37C242.25 205.793 243.32 204.749 244.937 204.749C249.514 204.749 254.512 197.461 251.296 195.474C250.666 195.084 244.603 196.666 237.826 198.988C223.12 204.028 221.863 204.142 221.863 200.431C221.863 196.042 217.312 194.312 212.428 196.848C210.171 198.018 208.034 198.687 207.681 198.333C207.327 197.981 209.68 194.191 212.91 189.913C223.8 175.49 231.609 154.492 226.725 152.766C225.795 152.437 223.609 153.678 221.866 155.523ZM220.654 170.028C218.304 175.109 215.317 180.576 214.017 182.178C211.761 184.956 211.725 184.889 213.217 180.721C216.367 171.933 223.824 157.481 224.368 159.112C224.676 160.035 223.005 164.947 220.654 170.028ZM179.632 191.643C179.632 192.444 180.943 193.099 182.545 193.099C184.146 193.099 185.457 192.444 185.457 191.643C185.457 190.842 184.146 190.187 182.545 190.187C180.943 190.187 179.632 190.842 179.632 191.643ZM98.7938 208.71C95.0454 215.583 91.418 217.066 92.88 211.127C94.5372 204.391 98.0526 199.767 100.021 201.736C101.272 202.987 100.966 204.724 98.7938 208.71ZM320.75 232.454C318.178 237.28 313.342 244.161 310.004 247.744C300.275 258.193 297.009 255.662 304.881 243.775C308.975 237.596 322.595 223.68 324.55 223.68C325.033 223.68 323.321 227.628 320.75 232.454Z" fill="black"/>
</svg>
